<?xml version="1.0" encoding="UTF-8" standalone="no"?>
<!DOCTYPE svg PUBLIC "-//W3C//DTD SVG 1.1//EN" "http://www.w3.org/Graphics/SVG/1.1/DTD/svg11.dtd">
<svg xmlns="http://www.w3.org/2000/svg" version="1.1" viewBox="0.00 0.00 981.00 313.00">
<g fill="#00573c">
<path d="
  M 703.75 0.00
  Q 703.80 97.87 703.96 195.75
  Q 703.97 196.59 704.11 201.86
  Q 704.29 208.83 709.48 213.34
  A 4.42 4.29 77.4 0 0 710.44 213.97
  Q 717.36 217.39 725.89 217.51
  A 0.90 0.90 0.0 0 1 726.78 218.41
  L 726.78 223.70
  A 0.81 0.81 0.0 0 1 725.93 224.51
  Q 709.66 223.92 695.41 223.36
  C 684.60 222.94 674.94 223.66 653.17 224.52
  A 0.64 0.64 0.0 0 1 652.50 223.88
  L 652.50 218.31
  A 0.75 0.75 0.0 0 1 653.23 217.56
  Q 659.72 217.39 665.87 215.40
  C 674.37 212.66 675.51 205.30 675.51 197.40
  Q 675.48 170.22 675.49 50.50
  Q 675.49 43.07 674.05 31.97
  C 672.31 18.52 662.35 18.17 651.56 17.24
  A 0.62 0.61 -87.5 0 1 651.00 16.62
  L 651.00 10.98
  A 0.74 0.73 -5.8 0 1 651.59 10.26
  L 702.01 0.00
  L 703.75 0.00
  Z"
/>
<path d="
  M 0.00 224.53
  L 0.00 216.61
  Q 8.28 216.96 15.27 215.59
  Q 27.11 213.26 28.90 200.88
  C 30.26 191.50 30.56 180.72 30.69 170.60
  Q 30.84 159.24 30.69 60.50
  Q 30.67 48.32 29.72 37.51
  C 29.00 29.32 28.20 21.32 20.18 17.65
  C 14.03 14.83 6.79 14.71 0.00 14.89
  L 0.00 7.05
  Q 17.81 7.56 35.61 8.03
  Q 52.21 8.47 65.34 8.02
  Q 87.84 7.23 95.03 7.15
  Q 106.31 7.01 121.95 10.34
  Q 136.09 13.35 147.89 20.56
  C 170.01 34.08 176.64 58.56 169.22 82.70
  C 158.91 116.28 115.88 123.97 85.74 123.45
  Q 76.40 123.28 65.33 122.46
  A 0.52 0.52 0.0 0 0 64.77 122.98
  Q 64.74 134.68 64.78 170.25
  Q 64.79 182.49 65.82 193.49
  C 66.80 204.07 68.54 213.55 80.93 215.60
  Q 88.60 216.86 99.18 216.49
  A 0.29 0.29 0.0 0 1 99.48 216.78
  L 99.48 224.27
  A 0.23 0.23 0.0 0 1 99.24 224.50
  Q 82.47 224.11 61.76 223.47
  Q 51.77 223.16 43.00 223.39
  Q 21.50 223.94 0.00 224.53
  Z
  M 65.01 113.32
  Q 72.61 114.17 81.98 114.62
  Q 95.02 115.25 107.40 111.27
  C 122.38 106.46 130.89 93.93 133.02 78.54
  C 136.51 53.37 132.23 25.58 103.38 18.61
  C 94.78 16.54 86.25 16.74 76.60 17.13
  Q 71.62 17.33 67.98 18.40
  C 65.19 19.22 64.77 22.47 64.77 25.00
  Q 64.75 86.69 64.77 113.05
  A 0.27 0.27 0.0 0 0 65.01 113.32
  Z"
/>
<path d="
  M 297.19 200.11
  C 279.71 222.73 254.97 230.83 227.21 227.28
  Q 207.93 224.81 192.31 213.46
  C 158.59 188.96 156.83 141.55 180.07 109.59
  C 195.19 88.80 218.53 77.54 244.25 79.43
  C 274.90 81.69 301.55 99.86 301.24 133.51
  Q 301.22 134.98 299.33 135.85
  A 1.77 1.75 -56.6 0 1 298.62 136.00
  L 199.19 136.00
  A 0.37 0.37 0.0 0 0 198.82 136.34
  C 198.29 143.92 197.22 150.28 197.70 156.60
  C 199.63 181.86 211.16 210.15 238.66 216.23
  C 259.63 220.86 277.98 209.61 290.06 193.13
  A 0.29 0.28 -49.4 0 1 290.49 193.09
  L 297.17 199.77
  A 0.26 0.26 0.0 0 1 297.19 200.11
  Z
  M 201.40 126.72
  Q 203.44 126.71 262.14 126.84
  C 266.05 126.85 270.14 125.29 270.41 120.76
  Q 270.94 112.12 267.23 103.78
  C 261.16 90.12 247.52 85.74 233.43 87.38
  C 220.11 88.93 210.48 97.77 205.52 110.00
  Q 201.35 120.26 200.82 126.09
  A 0.58 0.57 -87.8 0 0 201.40 126.72
  Z"
/>
<path d="
  M 315.4658 149.4597
  A 79.15 74.41 -176.9 0 1 398.5240 79.4389
  A 79.15 74.41 -176.9 0 1 473.5342 158.0203
  A 79.15 74.41 -176.9 0 1 390.4760 228.0411
  A 79.15 74.41 -176.9 0 1 315.4658 149.4597
  Z
  M 348.61 155.24
  C 348.62 184.40 358.17 218.79 393.55 220.30
  C 431.70 221.93 441.18 182.36 440.36 152.72
  Q 440.36 152.44 440.36 152.25
  C 440.35 123.09 430.79 88.69 395.41 87.18
  C 357.26 85.56 347.78 125.13 348.60 154.76
  Q 348.61 155.05 348.61 155.24
  Z"
/>
<path d="
  M 558.03 313.00
  L 552.12 313.00
  Q 528.80 311.74 519.75 311.76
  Q 512.07 311.78 488.34 313.00
  L 482.09 313.00
  L 482.13 306.77
  A 0.61 0.61 0.0 0 1 482.71 306.17
  C 488.38 305.90 498.30 304.76 501.78 299.23
  Q 504.08 295.58 504.37 292.61
  Q 504.71 289.15 504.71 286.87
  Q 504.80 260.23 504.72 138.50
  Q 504.71 128.94 504.24 118.50
  Q 503.96 112.46 503.19 107.55
  C 501.23 95.09 490.89 96.04 481.27 96.27
  A 0.26 0.25 88.9 0 1 481.01 96.01
  L 481.01 89.79
  A 0.30 0.30 0.0 0 1 481.26 89.49
  Q 504.29 85.68 528.45 79.18
  A 0.44 0.44 0.0 0 1 529.00 79.60
  L 529.00 105.93
  A 0.33 0.33 0.0 0 0 529.61 106.11
  Q 531.55 103.09 535.02 99.07
  Q 551.00 80.62 574.01 79.36
  C 608.70 77.46 638.47 97.69 647.82 131.42
  C 655.99 160.87 648.03 193.75 623.53 213.18
  Q 601.52 230.64 571.08 227.61
  Q 551.58 225.66 536.79 212.96
  Q 535.30 211.69 533.20 210.15
  A 0.23 0.23 0.0 0 0 532.84 210.34
  Q 532.64 248.47 532.84 287.47
  C 532.88 294.96 535.21 301.20 542.48 303.77
  Q 548.66 305.94 557.29 306.15
  A 0.59 0.58 89.5 0 1 557.86 306.72
  L 558.03 313.00
  Z
  M 532.90 175.25
  C 533.16 182.32 533.48 188.65 535.57 195.73
  C 540.57 212.77 562.36 218.81 578.09 216.94
  C 616.87 212.33 621.03 162.08 616.12 132.87
  C 612.34 110.32 600.16 91.28 575.16 90.04
  C 550.58 88.83 534.66 107.46 533.22 130.76
  Q 532.76 138.21 532.75 140.25
  Q 532.72 170.19 532.90 175.25
  Z"
/>
<path d="
  M 867.89 199.78
  A 0.26 0.26 0.0 0 1 867.91 200.12
  C 850.42 222.74 825.68 230.83 797.92 227.27
  Q 778.64 224.79 763.03 213.44
  C 729.32 188.93 727.57 141.52 750.82 109.57
  C 765.95 88.78 789.29 77.53 815.01 79.43
  C 845.66 81.70 872.30 99.88 871.98 133.53
  Q 871.96 135.00 870.07 135.86
  A 1.77 1.75 -56.6 0 1 869.36 136.01
  L 769.93 135.98
  A 0.37 0.37 0.0 0 0 769.56 136.32
  C 769.03 143.90 767.96 150.26 768.44 156.58
  C 770.36 181.84 781.88 210.13 809.38 216.22
  C 830.34 220.86 848.70 209.62 860.78 193.14
  A 0.29 0.28 -49.4 0 1 861.21 193.10
  L 867.89 199.78
  Z
  M 772.14 126.71
  Q 774.18 126.70 832.87 126.84
  C 836.78 126.85 840.87 125.29 841.14 120.76
  Q 841.67 112.12 837.96 103.78
  C 831.89 90.13 818.25 85.75 804.17 87.38
  C 790.85 88.93 781.22 97.77 776.26 110.00
  Q 772.09 120.26 771.56 126.08
  A 0.58 0.57 -87.8 0 0 772.14 126.71
  Z"
/>
<path d="
  M 896.01 216.92
  L 888.78 225.33
  A 1.18 1.16 19.4 0 1 887.91 225.74
  L 885.42 225.81
  A 0.57 0.57 0.0 0 1 884.83 225.25
  L 883.53 179.37
  A 0.66 0.66 0.0 0 1 884.20 178.70
  L 889.83 178.79
  A 0.77 0.76 83.6 0 1 890.56 179.38
  C 896.10 202.49 910.10 223.95 937.52 219.74
  C 947.92 218.14 956.82 211.52 958.08 200.59
  C 959.47 188.54 952.77 179.74 942.88 173.60
  C 923.43 161.55 891.47 152.74 886.59 126.49
  C 883.79 111.43 888.97 96.68 901.13 87.52
  C 917.76 74.97 940.71 78.22 958.06 87.11
  A 0.58 0.58 0.0 0 0 958.76 86.96
  L 964.55 79.97
  A 1.44 1.41 -69.1 0 1 965.66 79.46
  L 968.46 79.50
  A 0.61 0.61 0.0 0 1 969.06 80.12
  L 968.43 120.29
  A 0.53 0.52 0.0 0 1 967.90 120.81
  L 962.04 120.71
  A 0.76 0.75 81.0 0 1 961.32 120.18
  Q 960.38 117.16 957.55 110.46
  C 952.26 97.88 944.09 87.96 929.72 87.07
  C 923.33 86.67 915.80 88.73 911.48 93.47
  C 906.20 99.27 905.80 107.85 909.44 114.59
  C 912.70 120.63 919.10 125.11 925.06 128.18
  Q 937.63 134.67 949.56 140.92
  Q 957.57 145.12 964.29 150.11
  C 976.90 159.48 981.71 172.70 980.70 188.02
  C 979.29 209.27 962.39 224.27 941.77 227.34
  Q 920.60 230.50 901.67 220.02
  C 900.16 219.19 898.18 217.51 896.90 216.77
  A 0.71 0.71 0.0 0 0 896.01 216.92
  Z"
/>
</g>
<g fill="#000000">
<path d="
  M 615.88 273.50
  A 0.33 0.32 0.0 0 1 615.55 273.82
  L 611.49 273.76
  A 0.46 0.45 87.0 0 1 611.05 273.36
  C 610.21 267.38 606.11 263.66 600.17 265.71
  Q 595.10 267.47 594.77 273.55
  Q 594.51 278.38 599.88 280.75
  C 603.60 282.39 610.66 283.32 614.66 289.08
  Q 616.76 292.11 617.01 296.13
  C 618.33 317.40 587.99 318.69 588.27 297.24
  A 0.26 0.26 0.0 0 1 588.53 296.98
  L 593.10 297.05
  A 0.27 0.26 1.1 0 1 593.36 297.31
  Q 593.40 303.35 597.88 306.37
  Q 600.55 308.16 604.61 307.39
  C 610.91 306.19 613.06 298.87 610.96 293.52
  A 3.80 3.77 -77.3 0 0 610.22 292.34
  C 607.16 289.02 604.38 288.02 600.14 286.64
  C 591.54 283.83 587.46 278.29 590.47 268.66
  C 592.50 262.13 599.78 259.17 606.36 260.53
  C 612.58 261.82 615.86 267.42 615.88 273.50
  Z"
/>
<path d="
  M 637.32 261.24
  Q 643.67 261.24 649.48 261.21
  A 0.60 0.60 0.0 0 1 650.08 261.81
  L 650.08 265.73
  A 0.51 0.51 0.0 0 1 649.57 266.24
  L 640.58 266.24
  A 0.66 0.65 -0.0 0 0 639.92 266.89
  L 639.92 311.33
  A 0.40 0.40 0.0 0 1 639.53 311.73
  Q 639.21 311.74 637.40 311.75
  Q 635.58 311.75 635.26 311.74
  A 0.40 0.40 0.0 0 1 634.87 311.34
  L 634.74 266.90
  A 0.66 0.65 -0.2 0 0 634.08 266.25
  L 625.09 266.28
  A 0.51 0.51 0.0 0 1 624.58 265.77
  L 624.57 261.85
  A 0.60 0.60 0.0 0 1 625.17 261.24
  Q 630.98 261.26 637.32 261.24
  Z"
/>
<path d="
  M 674.01 261.24
  Q 675.33 261.24 676.63 261.32
  A 0.92 0.92 0.0 0 1 677.44 261.91
  L 696.36 311.16
  A 0.50 0.49 -10.3 0 1 695.89 311.83
  L 691.65 311.76
  A 0.88 0.86 -9.9 0 1 690.85 311.21
  L 685.26 296.65
  A 0.94 0.93 -9.4 0 0 684.42 296.05
  Q 683.47 296.01 673.97 296.00
  Q 664.46 295.99 663.52 296.02
  A 0.94 0.93 9.5 0 0 662.67 296.62
  L 657.04 311.16
  A 0.88 0.86 10.1 0 1 656.24 311.71
  L 652.00 311.77
  A 0.50 0.49 10.5 0 1 651.53 311.10
  L 670.59 261.90
  A 0.92 0.92 0.0 0 1 671.39 261.31
  Q 672.69 261.24 674.01 261.24
  Z
  M 664.86 290.55
  A 0.34 0.34 0.0 0 0 665.18 291.01
  L 682.67 290.98
  A 0.34 0.34 0.0 0 0 682.99 290.52
  L 674.20 267.32
  A 0.34 0.34 0.0 0 0 673.56 267.32
  L 664.86 290.55
  Z"
/>
<path d="
  M 711.76 311.77
  Q 709.94 311.77 709.62 311.76
  A 0.40 0.40 0.0 0 1 709.23 311.36
  L 709.16 266.91
  A 0.66 0.65 -0.1 0 0 708.49 266.26
  L 699.50 266.27
  A 0.51 0.51 0.0 0 1 698.99 265.76
  L 698.98 261.84
  A 0.60 0.60 0.0 0 1 699.58 261.24
  Q 705.40 261.26 711.74 261.25
  Q 718.09 261.26 723.90 261.23
  A 0.60 0.60 0.0 0 1 724.50 261.83
  L 724.50 265.75
  A 0.51 0.51 0.0 0 1 723.99 266.26
  L 715.00 266.25
  A 0.66 0.65 0.1 0 0 714.34 266.90
  L 714.29 311.36
  A 0.40 0.40 0.0 0 1 713.90 311.76
  Q 713.58 311.77 711.76 311.77
  Z"
/>
<path d="
  M 760.50 286.37
  Q 760.50 287.62 760.40 288.33
  A 0.65 0.64 -85.5 0 1 759.76 288.88
  L 739.93 288.88
  A 0.42 0.41 0.0 0 0 739.51 289.29
  L 739.51 305.94
  A 0.56 0.56 0.0 0 0 740.07 306.50
  L 760.16 306.50
  A 0.36 0.36 0.0 0 1 760.52 306.86
  L 760.52 311.20
  A 0.44 0.43 -90.0 0 1 760.09 311.64
  L 734.97 311.64
  A 0.69 0.69 0.0 0 1 734.28 310.95
  Q 734.26 309.62 734.25 286.39
  Q 734.23 263.15 734.24 261.82
  A 0.69 0.69 0.0 0 1 734.93 261.13
  L 760.05 261.09
  A 0.44 0.43 89.9 0 1 760.48 261.53
  L 760.49 265.87
  A 0.36 0.36 0.0 0 1 760.13 266.23
  L 740.04 266.26
  A 0.56 0.56 0.0 0 0 739.48 266.83
  L 739.51 283.48
  A 0.42 0.41 -0.1 0 0 739.93 283.88
  L 759.76 283.85
  A 0.65 0.64 85.4 0 1 760.39 284.40
  Q 760.50 285.11 760.50 286.37
  Z"
/>
<path d="
  M 818.44 284.70
  Q 824.49 287.54 824.99 294.63
  Q 825.86 306.88 815.73 310.56
  Q 813.49 311.38 808.26 311.66
  Q 804.04 311.88 796.56 311.75
  A 0.33 0.32 0.9 0 1 796.24 311.43
  L 796.24 261.89
  A 0.58 0.58 0.0 0 1 796.82 261.31
  C 807.61 261.14 819.22 259.57 822.01 271.37
  Q 823.75 278.71 818.32 283.97
  A 0.45 0.45 0.0 0 0 818.44 284.70
  Z
  M 801.28 266.54
  L 801.22 282.34
  A 0.27 0.27 0.0 0 0 801.49 282.61
  L 808.04 282.64
  A 8.92 7.27 0.2 0 0 816.99 275.40
  L 816.99 273.60
  A 8.92 7.27 0.2 0 0 808.10 266.30
  L 801.55 266.27
  A 0.27 0.27 0.0 0 0 801.28 266.54
  Z
  M 801.29 288.30
  L 801.23 306.06
  A 0.45 0.45 0.0 0 0 801.68 306.51
  L 810.02 306.54
  A 9.89 8.60 0.2 0 0 819.94 297.97
  L 819.94 296.51
  A 9.89 8.60 0.2 0 0 810.08 287.88
  L 801.74 287.85
  A 0.45 0.45 0.0 0 0 801.29 288.30
  Z"
/>
<path d="
  M 857.42 296.00
  Q 847.92 295.99 846.97 296.02
  A 0.94 0.93 9.5 0 0 846.13 296.62
  L 840.50 311.16
  A 0.88 0.86 10.1 0 1 839.70 311.71
  L 835.46 311.77
  A 0.50 0.49 10.5 0 1 834.99 311.10
  L 854.04 261.91
  A 0.92 0.92 0.0 0 1 854.85 261.32
  Q 856.15 261.24 857.47 261.25
  Q 858.79 261.25 860.09 261.32
  A 0.92 0.92 0.0 0 1 860.89 261.92
  L 879.81 311.16
  A 0.50 0.49 -10.3 0 1 879.34 311.83
  L 875.10 311.76
  A 0.88 0.86 -9.9 0 1 874.30 311.21
  L 868.71 296.65
  A 0.94 0.93 -9.3 0 0 867.87 296.05
  Q 866.92 296.01 857.42 296.00
  Z
  M 848.30 290.57
  A 0.33 0.33 0.0 0 0 848.61 291.02
  L 866.14 290.98
  A 0.33 0.33 0.0 0 0 866.45 290.54
  L 857.64 267.28
  A 0.33 0.33 0.0 0 0 857.02 267.28
  L 848.30 290.57
  Z"
/>
<path d="
  M 913.71 285.27
  Q 919.64 294.99 925.44 304.41
  A 0.18 0.18 0.0 0 0 925.77 304.31
  L 925.77 261.46
  A 0.28 0.28 0.0 0 1 926.05 261.18
  L 930.52 261.18
  A 0.26 0.25 -0.0 0 1 930.78 261.43
  L 930.78 311.07
  A 0.65 0.65 0.0 0 1 930.12 311.72
  L 925.15 311.67
  A 1.07 1.07 0.0 0 1 924.20 311.09
  Q 923.92 310.65 909.83 287.58
  Q 903.90 277.87 898.10 268.45
  A 0.18 0.18 0.0 0 0 897.78 268.54
  L 897.78 311.39
  A 0.28 0.28 0.0 0 1 897.50 311.67
  L 893.03 311.67
  A 0.26 0.25 -0.0 0 1 892.77 311.42
  L 892.77 261.78
  A 0.65 0.65 0.0 0 1 893.43 261.13
  L 898.40 261.18
  A 1.07 1.07 0.0 0 1 899.34 261.76
  Q 899.63 262.20 913.71 285.27
  Z"
/>
<path d="
  M 979.72 311.75
  L 974.02 311.75
  A 0.30 0.30 0.0 0 1 973.78 311.63
  L 957.16 289.87
  A 0.30 0.30 0.0 0 0 956.69 289.86
  L 951.57 296.04
  A 0.30 0.30 0.0 0 0 951.50 296.23
  L 951.50 311.46
  A 0.30 0.30 0.0 0 1 951.20 311.76
  L 946.55 311.76
  A 0.30 0.30 0.0 0 1 946.25 311.46
  L 946.25 261.55
  A 0.30 0.30 0.0 0 1 946.55 261.25
  L 951.19 261.25
  A 0.30 0.30 0.0 0 1 951.49 261.55
  L 951.49 287.90
  A 0.30 0.30 0.0 0 0 952.02 288.09
  L 974.19 261.35
  A 0.30 0.30 0.0 0 1 974.42 261.24
  L 979.93 261.24
  A 0.30 0.30 0.0 0 1 980.16 261.73
  L 960.52 285.43
  A 0.30 0.30 0.0 0 0 960.51 285.80
  L 979.96 311.27
  A 0.30 0.30 0.0 0 1 979.72 311.75
  Z"
/>
</g>
</svg>
