<svg id="Layer_2" xmlns="http://www.w3.org/2000/svg" version="1.1" viewBox="0 0 208.6 42"><g id="Layer_1-2"><path d="M4.52 39.913c0 .331 0 .58.082.745 0 .248.083.497.166.828H.05c.083-.331.083-.58.166-.745 0-.248.082-.497.082-.828V5.067c0-.414-.082-.91-.248-1.573h9.519c1.572 0 3.062.248 4.387.662 1.324.414 2.483.993 3.476 1.821s1.655 1.738 2.152 2.814c.497 1.076.745 2.649.745 3.973 0 1.738-.497 3.477-1.407 4.801-.91 1.324-2.318 2.235-4.056 2.897-.58.248-1.159.414-1.738.58-1.49.33-3.89.413-3.89.413l12.415 18.79c.331.413.58.661.662.827.083.165.331.331.663.497h-6.87c-.083-.332-.249-.58-.332-.745-.082-.166-.248-.414-.413-.663L4.52 21.704h-.083l.083 18.21zm3.973-20.196c2.234 0 4.055-.58 5.38-1.82s2.069-3.063 2.069-5.05c0-1.076-.248-2.483-.662-3.394-.414-.993-1.076-1.738-1.904-2.4-1.241-.993-2.897-1.49-5.132-1.49H4.602V19.8c-.082-.083 3.89-.083 3.89-.083zm39.399 20.031c-.91.413-1.656.745-2.4 1.076-.746.33-1.49.496-2.236.745s-1.49.33-2.234.413c-.745.083-1.573.083-2.4.083-4.47 0-7.781-1.159-10.182-3.559-2.317-2.4-3.559-5.794-3.559-10.264 0-2.234.331-4.22.828-5.96.58-1.737 1.407-3.227 2.483-4.469s2.4-2.152 3.973-2.814c1.573-.662 3.31-.993 5.297-.993 3.56 0 6.374 1.159 8.36 3.393 1.987 2.235 3.063 5.546 3.228 9.767h-19.7c0 .91 0 1.656.084 2.318 0 .662.082 1.242.165 1.821.083.58.166 1.076.331 1.49.083.496.249.993.414 1.49 1.242 3.559 4.884 5.297 8.857 5.297 1.49 0 2.814-.248 3.973-.745 1.241-.496 2.483-1.241 3.807-2.4l.91 3.31zM44.415 25.51c-.083-.91-.165-2.483-.248-2.98-.083-.496-.248-1.076-.414-1.655-.414-1.49-1.159-2.566-2.152-3.394s-2.731-1.407-4.47-1.407c-2.152 0-4.138 1.159-5.297 2.566-1.159 1.49-2.07 4.139-2.318 6.787l14.9.083zM57.576 7.136c.91 0 1.572.248 2.07.662s.744.993.744 1.821-.248 1.324-.745 1.821c-.497.414-1.159.662-2.07.662s-1.655-.248-2.151-.662-.745-1.076-.745-1.821.248-1.324.745-1.738c.58-.497 1.241-.745 2.152-.745zm2.483 7.366c-.083.332-.083.663-.166.828 0 .248-.082.497-.082.828V39.83c0 .331 0 .58.082.828 0 .248.083.497.166.828H55.34c.083-.331.083-.58.166-.828 0-.248.082-.497.082-.828V16.158c0-.331 0-.662-.082-.828 0-.248-.083-.496-.166-.828h4.718zm22.1-.662c1.49 0 2.897.166 4.056.745s1.82 1.242 2.483 2.07c.993 1.241 1.49 2.897 1.49 5.049V39.83c0 .497.082 1.076.248 1.656h-4.8c.082-.248.082-.497.165-.745 0-.248.082-.497.082-.91V21.703c0-1.573-.413-2.732-1.324-3.56-.91-.827-2.649-1.407-4.304-1.407-1.986 0-3.56.745-4.635 1.821-1.076 1.159-1.656 2.649-1.656 4.718V39.83c0 .331 0 .58.083.828 0 .248.083.497.166.828h-4.718c.083-.331.083-.58.165-.745 0-.248.083-.497.083-.91V16.157c0-.58-.083-1.076-.248-1.656h4.387v3.808c1.655-2.4 4.47-4.47 8.277-4.47zm29.631 0c2.732 0 4.801.662 6.291 2.07 1.49 1.407 2.235 3.31 2.235 5.794V39.83c0 .331 0 .58.083.828 0 .248.083.497.165.828h-4.717c.082-.331.082-.58.165-.828 0-.248.083-.497.083-.828V22.78c0-1.987-.414-3.477-1.49-4.553-.828-.91-2.566-1.49-4.718-1.49-1.904 0-3.725.497-5.215 1.821-1.158 1.076-1.655 2.649-1.655 4.635V39.83c0 .331 0 .58.083.828 0 .248.083.497.165.828H98.63c.166-.58.248-1.076.248-1.656V2.997c0-.414 0-.662-.082-.91 0-.248-.083-.497-.166-.745h4.635c-.082.331-.082.58-.165.828 0 .248-.083.496-.083.827V17.98c1.573-1.904 4.966-4.139 8.774-4.139zm32.281 1.242c1.49.745 2.732 2.566 2.732 5.463v15.23c0 1.49.58 2.648 1.904 2.648.248 0 .496-.082.745-.165.248-.083.579-.331 1.076-.58v2.98c-.828.497-1.49.91-2.07 1.076s-1.241.331-1.903.331c-1.325 0-2.07-.414-2.732-.993s-1.159-1.655-1.407-3.228c-.993 1.159-2.731 2.483-4.139 3.31-.993.58-2.565.911-4.386.911-2.235 0-3.89-.662-5.215-2.07s-1.986-3.31-1.986-5.627c0-2.897.993-5.38 2.98-6.622.496-.331.91-.58 1.324-.745.413-.248.91-.414 1.49-.662s1.324-.497 2.234-.745c.91-.331 2.152-.662 3.642-1.159 1.242-.414 2.566-.828 3.063-1.407.58-.58.827-1.407.827-2.4 0-1.16-.744-2.318-1.655-3.063-1.904-1.573-5.794-1.076-7.367-.331-1.82.828-3.559 2.07-3.559 2.07l-.662-2.98c2.897-1.822 9.85-3.808 15.064-1.242-.082-.083 0 0 0 0zm-1.655 9.767c-.331.248-1.159.496-1.655.745-.497.165-.994.33-1.49.58-.497.165-.994.413-1.49.579-.248.082-.414.165-.58.248-.082 0-.165.083-.248.083s-.165.082-.248.082-.249.083-.497.249c-4.138 1.738-5.794 3.476-5.794 6.373 0 1.49.414 2.732 1.242 3.642s1.986 1.573 4.387 1.573c.91 0 1.903-.331 2.566-.745.744-.414 1.324-.828 1.903-1.407s.994-1.242 1.325-2.07c.33-.745.496-1.572.496-2.483l.083-7.45zm18.706-10.347v3.394c.497-1.407 1.573-2.4 2.649-2.98 1.076-.58 2.566-.993 4.552-1.076v3.642h-.827c-1.904 0-3.808.58-4.801 1.656-.497.58-.91 1.158-1.076 1.903-.248.745-.331 1.656-.331 2.815V39.83c0 .331 0 .663.083.828 0 .248.082.497.165.828h-4.8c.082-.331.082-.662.165-.828 0-.248.083-.497.083-.828V16.158c0-.331 0-.662-.083-.828 0-.248-.083-.496-.166-.828h4.387zm21.355 24.335a3.08 3.08 0 01-.993.166c-1.324 0-1.987-.828-1.987-2.4l.083-32.778-4.47.414v32.28c0 1.822.249 3.146 1.077 4.056.827.828 1.82 1.49 3.228 1.49.827 0 1.572-.083 2.234-.248a9.814 9.814 0 002.318-.828v-2.731c-.745.248-1.242.496-1.49.58z" fill="#001e61"/><path d="M117.916-.065h-1.573v1.324c40.64 0 70.604 13.575 84.178 40.31h8.029C193.734 11.274 162.447-.065 117.916-.065z" fill="#3cb4e5"/></g></svg>